<svg width="403" height="264" viewBox="0 0 403 264" fill="none" xmlns="http://www.w3.org/2000/svg">
<path d="M106.6 159.35V176H43.075V67.55H63.25V159.35H106.6ZM148.175 97.85C153.875 97.85 159.05 98.775 163.7 100.625C168.4 102.475 172.4 105.1 175.7 108.5C179.05 111.9 181.625 116.05 183.425 120.95C185.225 125.85 186.125 131.325 186.125 137.375C186.125 143.475 185.225 148.975 183.425 153.875C181.625 158.775 179.05 162.95 175.7 166.4C172.4 169.85 168.4 172.5 163.7 174.35C159.05 176.2 153.875 177.125 148.175 177.125C142.425 177.125 137.2 176.2 132.5 174.35C127.8 172.5 123.775 169.85 120.425 166.4C117.125 162.95 114.55 158.775 112.7 153.875C110.9 148.975 110 143.475 110 137.375C110 131.325 110.9 125.85 112.7 120.95C114.55 116.05 117.125 111.9 120.425 108.5C123.775 105.1 127.8 102.475 132.5 100.625C137.2 98.775 142.425 97.85 148.175 97.85ZM148.175 162.875C154.575 162.875 159.3 160.725 162.35 156.425C165.45 152.125 167 145.825 167 137.525C167 129.225 165.45 122.9 162.35 118.55C159.3 114.2 154.575 112.025 148.175 112.025C141.675 112.025 136.85 114.225 133.7 118.625C130.6 122.975 129.05 129.275 129.05 137.525C129.05 145.775 130.6 152.075 133.7 156.425C136.85 160.725 141.675 162.875 148.175 162.875ZM227.796 135.65C230.096 135.65 232.096 135.35 233.796 134.75C235.496 134.1 236.896 133.225 237.996 132.125C239.146 131.025 239.996 129.7 240.546 128.15C241.146 126.6 241.446 124.9 241.446 123.05C241.446 119.25 240.296 116.25 237.996 114.05C235.746 111.8 232.346 110.675 227.796 110.675C223.246 110.675 219.821 111.8 217.521 114.05C215.271 116.25 214.146 119.25 214.146 123.05C214.146 124.85 214.421 126.525 214.971 128.075C215.571 129.625 216.421 130.975 217.521 132.125C218.671 133.225 220.096 134.1 221.796 134.75C223.546 135.35 225.546 135.65 227.796 135.65ZM248.721 179.45C248.721 177.95 248.271 176.725 247.371 175.775C246.471 174.825 245.246 174.1 243.696 173.6C242.146 173.05 240.321 172.65 238.221 172.4C236.171 172.15 233.971 171.975 231.621 171.875C229.321 171.725 226.921 171.6 224.421 171.5C221.971 171.4 219.571 171.2 217.221 170.9C215.171 172.05 213.496 173.4 212.196 174.95C210.946 176.5 210.321 178.3 210.321 180.35C210.321 181.7 210.646 182.95 211.296 184.1C211.996 185.3 213.071 186.325 214.521 187.175C216.021 188.025 217.946 188.675 220.296 189.125C222.646 189.625 225.521 189.875 228.921 189.875C232.371 189.875 235.346 189.6 237.846 189.05C240.346 188.55 242.396 187.825 243.996 186.875C245.646 185.975 246.846 184.875 247.596 183.575C248.346 182.325 248.721 180.95 248.721 179.45ZM267.171 101.675V108.575C267.171 110.775 265.846 112.125 263.196 112.625L256.296 113.9C257.346 116.55 257.871 119.45 257.871 122.6C257.871 126.4 257.096 129.85 255.546 132.95C254.046 136 251.946 138.6 249.246 140.75C246.546 142.9 243.346 144.575 239.646 145.775C235.996 146.925 232.046 147.5 227.796 147.5C226.296 147.5 224.846 147.425 223.446 147.275C222.046 147.125 220.671 146.925 219.321 146.675C216.921 148.125 215.721 149.75 215.721 151.55C215.721 153.1 216.421 154.25 217.821 155C219.271 155.7 221.171 156.2 223.521 156.5C225.871 156.8 228.546 157 231.546 157.1C234.546 157.15 237.621 157.3 240.771 157.55C243.921 157.8 246.996 158.25 249.996 158.9C252.996 159.5 255.671 160.475 258.021 161.825C260.371 163.175 262.246 165.025 263.646 167.375C265.096 169.675 265.821 172.65 265.821 176.3C265.821 179.7 264.971 183 263.271 186.2C261.621 189.4 259.196 192.25 255.996 194.75C252.846 197.25 248.946 199.25 244.296 200.75C239.696 202.3 234.446 203.075 228.546 203.075C222.746 203.075 217.696 202.5 213.396 201.35C209.096 200.25 205.521 198.75 202.671 196.85C199.821 195 197.696 192.85 196.296 190.4C194.896 187.95 194.196 185.4 194.196 182.75C194.196 179.15 195.271 176.15 197.421 173.75C199.621 171.3 202.621 169.35 206.421 167.9C204.371 166.85 202.746 165.45 201.546 163.7C200.346 161.95 199.746 159.65 199.746 156.8C199.746 155.65 199.946 154.475 200.346 153.275C200.796 152.025 201.421 150.8 202.221 149.6C203.071 148.4 204.121 147.275 205.371 146.225C206.621 145.125 208.096 144.15 209.796 143.3C205.896 141.2 202.821 138.4 200.571 134.9C198.371 131.4 197.271 127.3 197.271 122.6C197.271 118.8 198.021 115.375 199.521 112.325C201.071 109.225 203.196 106.6 205.896 104.45C208.646 102.25 211.871 100.575 215.571 99.425C219.321 98.275 223.396 97.7 227.796 97.7C231.096 97.7 234.196 98.05 237.096 98.75C239.996 99.4 242.646 100.375 245.046 101.675H267.171ZM311.651 97.85C317.351 97.85 322.526 98.775 327.176 100.625C331.876 102.475 335.876 105.1 339.176 108.5C342.526 111.9 345.101 116.05 346.901 120.95C348.701 125.85 349.601 131.325 349.601 137.375C349.601 143.475 348.701 148.975 346.901 153.875C345.101 158.775 342.526 162.95 339.176 166.4C335.876 169.85 331.876 172.5 327.176 174.35C322.526 176.2 317.351 177.125 311.651 177.125C305.901 177.125 300.676 176.2 295.976 174.35C291.276 172.5 287.251 169.85 283.901 166.4C280.601 162.95 278.026 158.775 276.176 153.875C274.376 148.975 273.476 143.475 273.476 137.375C273.476 131.325 274.376 125.85 276.176 120.95C278.026 116.05 280.601 111.9 283.901 108.5C287.251 105.1 291.276 102.475 295.976 100.625C300.676 98.775 305.901 97.85 311.651 97.85ZM311.651 162.875C318.051 162.875 322.776 160.725 325.826 156.425C328.926 152.125 330.476 145.825 330.476 137.525C330.476 129.225 328.926 122.9 325.826 118.55C322.776 114.2 318.051 112.025 311.651 112.025C305.151 112.025 300.326 114.225 297.176 118.625C294.076 122.975 292.526 129.275 292.526 137.525C292.526 145.775 294.076 152.075 297.176 156.425C300.326 160.725 305.151 162.875 311.651 162.875Z" fill="black"/>
</svg>
